{
  "accessors": [
    {
      "bufferView": 2,
      "componentType": 5126,
      "count": 1722,
      "max": [
        259.6000061035156,
        -0.10000000149011612,
        12.710000038146973
      ],
      "min": [
        0.0,
        -199.89999389648438,
        -12.710000038146973
      ],
      "type": "VEC3"
    },
    {
      "bufferView": 2,
      "byteOffset": 20664,
      "componentType": 5126,
      "count": 1722,
      "max": [
        0.999984860420227,
        0.9999481439590454,
        1.0
      ],
      "min": [
        -0.9999778866767883,
        -0.9999886155128479,
        -1.0
      ],
      "type": "VEC3"
    },
    {
      "bufferView": 1,
      "componentType": 5126,
      "count": 1722,
      "max": [
        1.0,
        1.0
      ],
      "min": [
        0.0,
        3.054812580671751e-08
      ],
      "type": "VEC2"
    },
    {
      "bufferView": 0,
      "componentType": 5125,
      "count": 8730,
      "type": "SCALAR"
    },
    {
      "bufferView": 2,
      "byteOffset": 41328,
      "componentType": 5126,
      "count": 328,
      "max": [
        187.1999969482422,
        -58.900001525878906,
        4.309999942779541
      ],
      "min": [
        71.0999984741211,
        -120.5,
        -4.309999942779541
      ],
      "type": "VEC3"
    },
    {
      "bufferView": 2,
      "byteOffset": 45264,
      "componentType": 5126,
      "count": 328,
      "max": [
        0.9981694221496582,
        0.9995216131210327,
        0.9999982714653015
      ],
      "min": [
        -0.9983096122741699,
        -0.9990746974945068,
        -0.9999982714653015
      ],
      "type": "VEC3"
    },
    {
      "bufferView": 1,
      "byteOffset": 13776,
      "componentType": 5126,
      "count": 328,
      "max": [
        1.0,
        1.0
      ],
      "min": [
        -1.314279884923053e-08,
        0.0
      ],
      "type": "VEC2"
    },
    {
      "bufferView": 0,
      "byteOffset": 34920,
      "componentType": 5125,
      "count": 1962,
      "type": "SCALAR"
    },
    {
      "bufferView": 2,
      "byteOffset": 49200,
      "componentType": 5126,
      "count": 384,
      "max": [
        174.5,
        -69.19999694824219,
        2.22078800201416
      ],
      "min": [
        86.0,
        -103.80000305175781,
        -2.22078800201416
      ],
      "type": "VEC3"
    },
    {
      "bufferView": 2,
      "byteOffset": 53808,
      "componentType": 5126,
      "count": 384,
      "max": [
        0.9913938045501709,
        0.9905513525009155,
        0.9999677538871765
      ],
      "min": [
        -0.9913936853408813,
        -0.9905513525009155,
        -0.9999677538871765
      ],
      "type": "VEC3"
    },
    {
      "bufferView": 1,
      "byteOffset": 16400,
      "componentType": 5126,
      "count": 384,
      "max": [
        1.0,
        1.0000001192092896
      ],
      "min": [
        0.0,
        -8.820109087537276e-08
      ],
      "type": "VEC2"
    },
    {
      "bufferView": 0,
      "byteOffset": 42768,
      "componentType": 5125,
      "count": 2292,
      "type": "SCALAR"
    },
    {
      "bufferView": 2,
      "byteOffset": 58416,
      "componentType": 5126,
      "count": 980,
      "max": [
        170.6999969482422,
        -75.4000015258789,
        6.786373138427734
      ],
      "min": [
        90.0999984741211,
        -98.0999984741211,
        -6.786373138427734
      ],
      "type": "VEC3"
    },
    {
      "bufferView": 2,
      "byteOffset": 70176,
      "componentType": 5126,
      "count": 980,
      "max": [
        0.968583881855011,
        0.9589968919754028,
        0.9993879199028015
      ],
      "min": [
        -0.9715577960014343,
        -0.9562207460403442,
        -0.9993879199028015
      ],
      "type": "VEC3"
    },
    {
      "bufferView": 0,
      "byteOffset": 51936,
      "componentType": 5125,
      "count": 5844,
      "type": "SCALAR"
    },
    {
      "bufferView": 2,
      "byteOffset": 81936,
      "componentType": 5126,
      "count": 74,
      "max": [
        132.3000030517578,
        -99.0,
        2.152986764907837
      ],
      "min": [
        126.5,
        -104.9000015258789,
        -2.152986764907837
      ],
      "type": "VEC3"
    },
    {
      "bufferView": 2,
      "byteOffset": 82824,
      "componentType": 5126,
      "count": 74,
      "max": [
        0.831889808177948,
        0.8344972133636475,
        0.9999999403953552
      ],
      "min": [
        -0.8272050023078918,
        -0.8151395916938782,
        -0.9999999403953552
      ],
      "type": "VEC3"
    },
    {
      "bufferView": 0,
      "byteOffset": 75312,
      "componentType": 5125,
      "count": 432,
      "type": "SCALAR"
    },
    {
      "bufferView": 2,
      "byteOffset": 83712,
      "componentType": 5126,
      "count": 72,
      "max": [
        135.89999389648438,
        -108.4000015258789,
        1.0608752965927124
      ],
      "min": [
        122.30000305175781,
        -114.5999984741211,
        -1.0608752965927124
      ],
      "type": "VEC3"
    },
    {
      "bufferView": 2,
      "byteOffset": 84576,
      "componentType": 5126,
      "count": 72,
      "max": [
        0.7408124804496765,
        0.7444167137145996,
        0.9988505840301514
      ],
      "min": [
        -0.6676859855651855,
        -0.7658630013465881,
        -0.9988505840301514
      ],
      "type": "VEC3"
    },
    {
      "bufferView": 0,
      "byteOffset": 77040,
      "componentType": 5125,
      "count": 414,
      "type": "SCALAR"
    },
    {
      "bufferView": 2,
      "byteOffset": 85440,
      "componentType": 5126,
      "count": 558,
      "max": [
        96.69999694824219,
        -122.0999984741211,
        1.0899444818496704
      ],
      "min": [
        51.29999923706055,
        -148.10000610351563,
        -1.0899444818496704
      ],
      "type": "VEC3"
    },
    {
      "bufferView": 2,
      "byteOffset": 92136,
      "componentType": 5126,
      "count": 558,
      "max": [
        0.9707896113395691,
        0.9312363266944885,
        0.9997745156288147
      ],
      "min": [
        -0.8381621837615967,
        -0.9312322735786438,
        -0.9997745156288147
      ],
      "type": "VEC3"
    },
    {
      "bufferView": 1,
      "byteOffset": 19472,
      "componentType": 5126,
      "count": 558,
      "max": [
        1.0000008344650269,
        1.0000022649765015
      ],
      "min": [
        -8.030941671677283e-07,
        -2.260561359435087e-06
      ],
      "type": "VEC2"
    },
    {
      "bufferView": 0,
      "byteOffset": 78696,
      "componentType": 5125,
      "count": 1890,
      "type": "SCALAR"
    }
  ],
  "asset": {
    "extras": {
      "author": "pissang (https://sketchfab.com/YiChen)",
      "license": "CC-BY-4.0 (http://creativecommons.org/licenses/by/4.0/)",
      "source": "https://sketchfab.com/3d-models/github-octocat-c8a4795ce3fe4b21a4c40895cb9cb6a5",
      "title": "GitHub Octocat"
    },
    "generator": "Sketchfab-15.22.0",
    "version": "2.0"
  },
  "bufferViews": [
    {
      "buffer": 0,
      "byteLength": 86256,
      "name": "floatBufferViews",
      "target": 34963
    },
    {
      "buffer": 0,
      "byteLength": 23936,
      "byteOffset": 86256,
      "byteStride": 8,
      "name": "floatBufferViews",
      "target": 34962
    },
    {
      "buffer": 0,
      "byteLength": 98832,
      "byteOffset": 110192,
      "byteStride": 12,
      "name": "floatBufferViews",
      "target": 34962
    }
  ],
  "buffers": [
    {
      "byteLength": 209024,
      "uri": "scene.bin"
    }
  ],
  "materials": [
    {
      "name": "material_0",
      "pbrMetallicRoughness": {
        "baseColorFactor": [
          0.0,
          0.0,
          0.0,
          1.0
        ],
        "metallicFactor": 0.0,
        "roughnessFactor": 0.0
      }
    },
    {
      "name": "material_1",
      "pbrMetallicRoughness": {
        "baseColorFactor": [
          0.956863,
          0.796078,
          0.698039,
          1.0
        ],
        "metallicFactor": 0.0,
        "roughnessFactor": 0.0
      }
    },
    {
      "name": "material_2",
      "pbrMetallicRoughness": {
        "metallicFactor": 0.0,
        "roughnessFactor": 0.0
      }
    },
    {
      "name": "material_3",
      "pbrMetallicRoughness": {
        "baseColorFactor": [
          0.678431,
          0.360784,
          0.317647,
          1.0
        ],
        "metallicFactor": 0.0,
        "roughnessFactor": 0.0
      }
    },
    {
      "name": "material_4",
      "pbrMetallicRoughness": {
        "baseColorFactor": [
          0.678431,
          0.360784,
          0.317647,
          1.0
        ],
        "metallicFactor": 0.0,
        "roughnessFactor": 0.0
      }
    },
    {
      "name": "material_5",
      "pbrMetallicRoughness": {
        "baseColorFactor": [
          0.678431,
          0.360784,
          0.317647,
          1.0
        ],
        "metallicFactor": 0.0,
        "roughnessFactor": 0.0
      }
    },
    {
      "name": "material_6",
      "pbrMetallicRoughness": {
        "baseColorFactor": [
          0.764706,
          0.894118,
          0.847059,
          1.0
        ],
        "metallicFactor": 0.0,
        "roughnessFactor": 0.0
      }
    }
  ],
  "meshes": [
    {
      "name": "Object_0",
      "primitives": [
        {
          "attributes": {
            "NORMAL": 1,
            "POSITION": 0,
            "TEXCOORD_0": 2
          },
          "indices": 3,
          "material": 0,
          "mode": 4
        }
      ]
    },
    {
      "name": "Object_1",
      "primitives": [
        {
          "attributes": {
            "NORMAL": 5,
            "POSITION": 4,
            "TEXCOORD_0": 6
          },
          "indices": 7,
          "material": 1,
          "mode": 4
        }
      ]
    },
    {
      "name": "Object_2",
      "primitives": [
        {
          "attributes": {
            "NORMAL": 9,
            "POSITION": 8,
            "TEXCOORD_0": 10
          },
          "indices": 11,
          "material": 2,
          "mode": 4
        }
      ]
    },
    {
      "name": "Object_3",
      "primitives": [
        {
          "attributes": {
            "NORMAL": 13,
            "POSITION": 12
          },
          "indices": 14,
          "material": 3,
          "mode": 4
        }
      ]
    },
    {
      "name": "Object_4",
      "primitives": [
        {
          "attributes": {
            "NORMAL": 16,
            "POSITION": 15
          },
          "indices": 17,
          "material": 4,
          "mode": 4
        }
      ]
    },
    {
      "name": "Object_5",
      "primitives": [
        {
          "attributes": {
            "NORMAL": 19,
            "POSITION": 18
          },
          "indices": 20,
          "material": 5,
          "mode": 4
        }
      ]
    },
    {
      "name": "Object_6",
      "primitives": [
        {
          "attributes": {
            "NORMAL": 22,
            "POSITION": 21,
            "TEXCOORD_0": 23
          },
          "indices": 24,
          "material": 6,
          "mode": 4
        }
      ]
    }
  ],
  "nodes": [
    {
      "children": [
        1
      ],
      "matrix": [
        1.0,
        0.0,
        0.0,
        0.0,
        0.0,
        2.220446049250313e-16,
        -1.0,
        0.0,
        0.0,
        1.0,
        2.220446049250313e-16,
        0.0,
        0.0,
        0.0,
        0.0,
        1.0
      ],
      "name": "Sketchfab_model"
    },
    {
      "children": [
        2
      ],
      "name": "root"
    },
    {
      "children": [
        3,
        5,
        7,
        9,
        11,
        13,
        15
      ],
      "matrix": [
        1.0,
        0.0,
        0.0,
        0.0,
        0.0,
        2.220446049250313e-16,
        1.0,
        0.0,
        0.0,
        -1.0,
        2.220446049250313e-16,
        0.0,
        0.0,
        0.0,
        0.0,
        1.0
      ],
      "name": "GLTF_SceneRootNode"
    },
    {
      "children": [
        4
      ],
      "matrix": [
        0.05000000074505806,
        0.0,
        0.0,
        0.0,
        0.0,
        0.05000000074505806,
        0.0,
        0.0,
        0.0,
        0.0,
        0.05000000074505806,
        0.0,
        0.003976940177381039,
        9.994999885559082,
        0.6355000138282776,
        1.0
      ],
      "name": "NODE_333_0"
    },
    {
      "mesh": 0,
      "name": "Object_4"
    },
    {
      "children": [
        6
      ],
      "matrix": [
        0.05000000074505806,
        0.0,
        0.0,
        0.0,
        0.0,
        0.05000000074505806,
        0.0,
        0.0,
        0.0,
        0.0,
        0.05000000074505806,
        0.0,
        0.00217774068005383,
        9.996821403503418,
        1.4865000247955322,
        1.0
      ],
      "name": "NODE_326_1"
    },
    {
      "mesh": 1,
      "name": "Object_6"
    },
    {
      "children": [
        8
      ],
      "matrix": [
        0.05000000074505806,
        0.0,
        0.0,
        0.0,
        0.0,
        0.05000000074505806,
        0.0,
        0.0,
        0.0,
        0.0,
        0.05000000074505806,
        0.0,
        -0.0019989237189292908,
        9.99435806274414,
        1.8130394220352173,
        1.0
      ],
      "name": "NODE_321_2"
    },
    {
      "mesh": 2,
      "name": "Object_8"
    },
    {
      "children": [
        10
      ],
      "matrix": [
        0.05000000074505806,
        0.0,
        0.0,
        0.0,
        0.0,
        0.05000000074505806,
        0.0,
        0.0,
        0.0,
        0.0,
        0.05000000074505806,
        0.0,
        -0.0018973893020302057,
        9.988323211669922,
        1.7995314598083496,
        1.0
      ],
      "name": "NODE_320_3"
    },
    {
      "mesh": 3,
      "name": "Object_10"
    },
    {
      "children": [
        12
      ],
      "matrix": [
        0.05000000074505806,
        0.0,
        0.0,
        0.0,
        0.0,
        0.05000000074505806,
        0.0,
        0.0,
        0.0,
        0.0,
        0.05000000074505806,
        0.0,
        -0.0011946522863581777,
        9.995652198791504,
        1.8096493482589722,
        1.0
      ],
      "name": "NODE_284_4"
    },
    {
      "mesh": 4,
      "name": "Object_12"
    },
    {
      "children": [
        14
      ],
      "matrix": [
        0.05000000074505806,
        0.0,
        0.0,
        0.0,
        0.0,
        0.05000000074505806,
        0.0,
        0.0,
        0.0,
        0.0,
        0.05000000074505806,
        0.0,
        0.012003688141703606,
        10.0016508102417,
        1.7550437450408936,
        1.0
      ],
      "name": "NODE_285_5"
    },
    {
      "mesh": 5,
      "name": "Object_14"
    },
    {
      "children": [
        16
      ],
      "matrix": [
        0.05000000074505806,
        0.0,
        0.0,
        0.0,
        0.0,
        0.05000000074505806,
        0.0,
        0.0,
        0.0,
        0.0,
        0.05000000074505806,
        0.0,
        -0.0002036267687799409,
        9.994658470153809,
        1.3254972696304321,
        1.0
      ],
      "name": "NODE_167_6"
    },
    {
      "mesh": 6,
      "name": "Object_16"
    }
  ],
  "scene": 0,
  "scenes": [
    {
      "name": "Sketchfab_Scene",
      "nodes": [
        0
      ]
    }
  ]
}
