<svg xmlns="http://www.w3.org/2000/svg" version="1.1" xmlns:xlink="http://www.w3.org/1999/xlink" xmlns:svgjs="http://svgjs.dev/svgjs" width="2000" height="1247" viewBox="0 0 2000 1247"><g transform="matrix(1,0,0,1,-1.2121212121212466,0.504858299595071)"><svg viewBox="0 0 396 247" data-background-color="#ffffff" preserveAspectRatio="xMidYMid meet" height="1247" width="2000" xmlns="http://www.w3.org/2000/svg" xmlns:xlink="http://www.w3.org/1999/xlink"><g id="tight-bounds" transform="matrix(1,0,0,1,0.2400000000000091,-0.09999999999999432)"><svg viewBox="0 0 395.52 247.2" height="247.2" width="395.52"><g><svg></svg></g><g><svg viewBox="0 0 395.52 247.2" height="247.2" width="395.52"><mask id="f47406e3-461e-4934-a4e9-a9731dfe83e6"><rect width="640" height="400" fill="white"></rect><g transform="matrix(1,0,0,1,65.61853658536586,37.08)"><svg viewBox="0 0 264.28292682926826 173.04" height="173.04" width="264.28292682926826"><g><svg viewBox="0 0 264.28292682926826 173.04" height="173.04" width="264.28292682926826"><g><svg viewBox="0 0 264.28292682926826 173.04" height="173.04" width="264.28292682926826"><g><svg viewBox="0 0 264.28292682926826 173.04" height="173.04" width="264.28292682926826"><g id="SvgjsG1254"><svg viewBox="0 0 264.28292682926826 173.04" height="173.04" width="264.28292682926826" id="SvgjsSvg1253"><g><svg viewBox="0 0 264.28292682926826 173.04" height="173.04" width="264.28292682926826"><g transform="matrix(1,0,0,1,0,0)"><svg width="264.28292682926826" viewBox="2.5 -41.55 66.75 44.05" height="173.04" data-palette-color="url(#2e917b2e-ee35-4c6f-8f4d-713f7b0d98ee)"><path d="M7.6 0L7.6 0Q6.55 0 5.78-0.75 5-1.5 5-2.6L5-2.6 5-36.45Q5-37.55 5.78-38.3 6.55-39.05 7.6-39.05L7.6-39.05Q8.7-39.05 9.45-38.3 10.2-37.55 10.2-36.45L10.2-36.45 10.2-21.45 26.75-38Q27.35-38.6 27.85-38.83 28.35-39.05 28.9-39.05L28.9-39.05Q30.15-39.05 30.7-38.3 31.25-37.55 31.1-36.52 30.95-35.5 30.15-34.65L30.15-34.65 17.4-21.85 30.4-4.15Q31-3.3 30.9-2.33 30.8-1.35 30.2-0.68 29.6 0 28.6 0L28.6 0Q27.2 0 26.45-1.1L26.45-1.1 13.8-18.25 10.2-14.65 10.2-2.6Q10.2-1.5 9.45-0.75 8.7 0 7.6 0ZM53.95 0L40.95 0Q39.85 0 39.1-0.75 38.35-1.5 38.35-2.6L38.35-2.6 38.35-36.45Q38.35-37.6 39.1-38.33 39.85-39.05 40.95-39.05L40.95-39.05 52.9-39.05Q56.3-39.05 58.87-37.73 61.45-36.4 62.92-34.05 64.4-31.7 64.4-28.65L64.4-28.65Q64.4-26.2 63.07-24.23 61.75-22.25 59.45-21.1L59.45-21.1Q62.75-20.3 64.75-17.95 66.75-15.6 66.75-11.8L66.75-11.8Q66.75-8.35 65.12-5.7 63.5-3.05 60.6-1.53 57.7 0 53.95 0L53.95 0ZM43.55-18.2L43.55-4.8 53.95-4.8Q56.25-4.8 58-5.6 59.75-6.4 60.75-7.95 61.75-9.5 61.75-11.8L61.75-11.8Q61.75-13.95 60.75-15.35 59.75-16.75 58-17.48 56.25-18.2 53.95-18.2L53.95-18.2 43.55-18.2ZM43.55-34.25L43.55-23 52.9-23Q55.75-23 57.57-24.4 59.4-25.8 59.4-28.65L59.4-28.65Q59.4-31.5 57.57-32.88 55.75-34.25 52.9-34.25L52.9-34.25 43.55-34.25Z" opacity="1" transform="matrix(1,0,0,1,0,0)" fill="black" class="wordmark-text-0" id="SvgjsPath1252" stroke-width="4" stroke="black" stroke-linejoin="round"></path></svg></g></svg></g></svg></g></svg></g></svg></g></svg></g></svg></g></mask><g transform="matrix(1,0,0,1,65.61853658536586,37.08)"><svg viewBox="0 0 264.28292682926826 173.04" height="173.04" width="264.28292682926826"><g><svg viewBox="0 0 264.28292682926826 173.04" height="173.04" width="264.28292682926826"><g><svg viewBox="0 0 264.28292682926826 173.04" height="173.04" width="264.28292682926826"><g><svg viewBox="0 0 264.28292682926826 173.04" height="173.04" width="264.28292682926826"><g id="textblocktransform"><svg viewBox="0 0 264.28292682926826 173.04" height="173.04" width="264.28292682926826" id="textblock"><g><svg viewBox="0 0 264.28292682926826 173.04" height="173.04" width="264.28292682926826"><g transform="matrix(1,0,0,1,0,0)"><svg width="264.28292682926826" viewBox="2.5 -41.55 66.75 44.05" height="173.04" data-palette-color="url(#2e917b2e-ee35-4c6f-8f4d-713f7b0d98ee)"></svg></g></svg></g></svg></g></svg></g></svg></g></svg></g></svg></g><g mask="url(#f47406e3-461e-4934-a4e9-a9731dfe83e6)"><g transform="matrix(3.262286793858599, 0, 0, 3.262286793858599, 75.73090018892522, 1)"><svg xmlns="http://www.w3.org/2000/svg" xmlns:xlink="http://www.w3.org/1999/xlink" version="1.1" x="0" y="0" viewBox="12.594 12.419 74.81200000000001 75.16199999999999" enable-background="new 0 0 100 100" xml:space="preserve" height="75.16199999999999" width="74.81200000000001" class="icon-none" data-fill-palette-color="accent" id="none"><g fill="#b10dc9" data-fill-palette-color="accent"><path fill="none" d="M64.479 30.522H35.521c-2.757 0-5 2.243-5 5v28.956c0 2.757 2.243 5 5 5h28.957c2.757 0 5-2.243 5-5V35.522C69.479 32.766 67.235 30.522 64.479 30.522zM67.479 64.479c0 1.654-1.346 3-3 3H35.521c-1.654 0-3-1.346-3-3V35.522c0-1.654 1.346-3 3-3h28.957c1.654 0 3 1.346 3 3V64.479z"></path><path d="M64.479 32.522H35.521c-1.654 0-3 1.346-3 3v28.956c0 1.654 1.346 3 3 3h28.957c1.654 0 3-1.346 3-3V35.522C67.479 33.868 66.133 32.522 64.479 32.522z" fill="#b10dc9" data-fill-palette-color="accent"></path><path d="M76.742 27.258c0-2.209-1.791-4-4-4h-0.4v-3.681h-4.979v3.681h-3.146v-3.429h-4.979v3.429h-3.012v-3.442h-4.979v3.442h-2.781v-3.687h-4.979v3.687h-3.012v-3.7h-4.979v3.7h-3.021v-3.713h-4.979v3.713h-0.24c-2.209 0-4 1.791-4 4v0.825h-3.506v4.979h3.506v3.146h-3.256v4.979h3.256v3.012H19.99v4.979h3.268v2.781h-3.514v4.979h3.514v3.012h-3.525v4.979h3.525v3.021h-3.539v4.979h3.558c0.099 2.122 1.836 3.816 3.981 3.816h0.24v3.68h4.979v-3.68h3.146v3.429h4.979v-3.429h3.012v3.441h4.979v-3.441h2.781v3.687h4.979v-3.687h3.012v3.699h4.979v-3.699h3.021v3.713h4.979v-3.713h0.4c2.146 0 3.883-1.694 3.981-3.816h3.524v-4.979h-3.506v-3.146h3.256v-4.979h-3.256v-3.012h3.268v-4.979h-3.268v-2.781h3.514v-4.979h-3.514v-3.012h3.525v-4.979h-3.525v-3.021h3.539v-4.979h-3.539V27.258zM69.479 64.479c0 2.757-2.243 5-5 5H35.521c-2.757 0-5-2.243-5-5V35.522c0-2.757 2.243-5 5-5h28.957c2.757 0 5 2.243 5 5V64.479z" fill="#b10dc9" data-fill-palette-color="accent"></path><rect x="29.008" y="81.51" width="1.961" height="6.039" fill="#b10dc9" data-fill-palette-color="accent"></rect><rect x="37.133" y="81.259" width="1.961" height="6.039" fill="#b10dc9" data-fill-palette-color="accent"></rect><rect x="45.123" y="81.271" width="1.961" height="6.039" fill="#b10dc9" data-fill-palette-color="accent"></rect><rect x="52.883" y="81.517" width="1.961" height="6.039" fill="#b10dc9" data-fill-palette-color="accent"></rect><rect x="60.873" y="81.529" width="1.961" height="6.039" fill="#b10dc9" data-fill-palette-color="accent"></rect><rect x="68.873" y="81.542" width="1.961" height="6.039" fill="#b10dc9" data-fill-palette-color="accent"></rect><rect x="68.873" y="12.452" width="1.959" height="6.039" fill="#b10dc9" data-fill-palette-color="accent"></rect><rect x="60.748" y="12.703" width="1.959" height="6.039" fill="#b10dc9" data-fill-palette-color="accent"></rect><rect x="52.758" y="12.69" width="1.959" height="6.039" fill="#b10dc9" data-fill-palette-color="accent"></rect><rect x="44.998" y="12.445" width="1.959" height="6.039" fill="#b10dc9" data-fill-palette-color="accent"></rect><rect x="37.008" y="12.433" width="1.959" height="6.039" fill="#b10dc9" data-fill-palette-color="accent"></rect><rect x="29.008" y="12.419" width="1.959" height="6.039" fill="#b10dc9" data-fill-palette-color="accent"></rect><rect x="12.625" y="29.593" width="6.039" height="1.96" fill="#b10dc9" data-fill-palette-color="accent"></rect><rect x="12.877" y="37.718" width="6.039" height="1.96" fill="#b10dc9" data-fill-palette-color="accent"></rect><rect x="12.863" y="45.708" width="6.039" height="1.961" fill="#b10dc9" data-fill-palette-color="accent"></rect><rect x="12.619" y="53.468" width="6.039" height="1.961" fill="#b10dc9" data-fill-palette-color="accent"></rect><rect x="12.605" y="61.458" width="6.039" height="1.961" fill="#b10dc9" data-fill-palette-color="accent"></rect><rect x="12.594" y="69.458" width="6.039" height="1.961" fill="#b10dc9" data-fill-palette-color="accent"></rect><rect x="81.336" y="69.458" width="6.039" height="1.959" fill="#b10dc9" data-fill-palette-color="accent"></rect><rect x="81.084" y="61.333" width="6.039" height="1.959" fill="#b10dc9" data-fill-palette-color="accent"></rect><rect x="81.098" y="53.343" width="6.039" height="1.959" fill="#b10dc9" data-fill-palette-color="accent"></rect><rect x="81.342" y="45.583" width="6.039" height="1.959" fill="#b10dc9" data-fill-palette-color="accent"></rect><rect x="81.355" y="37.592" width="6.039" height="1.96" fill="#b10dc9" data-fill-palette-color="accent"></rect><rect x="81.367" y="29.592" width="6.039" height="1.96" fill="#b10dc9" data-fill-palette-color="accent"></rect></g></svg></g></g></svg></g><defs></defs><mask id="12b62957-34bf-4767-b86d-7099cbd65a43"><g id="SvgjsG1264"><svg viewBox="0 0 395.52 247.2" height="247.2" width="395.52"><g><svg></svg></g><g><svg viewBox="0 0 395.52 247.2" height="247.2" width="395.52"><mask id="SvgjsMask1263"><rect width="640" height="400" fill="black"></rect><g transform="matrix(1,0,0,1,65.61853658536586,37.08)"><svg viewBox="0 0 264.28292682926826 173.04" height="173.04" width="264.28292682926826"><g><svg viewBox="0 0 264.28292682926826 173.04" height="173.04" width="264.28292682926826"><g><svg viewBox="0 0 264.28292682926826 173.04" height="173.04" width="264.28292682926826"><g><svg viewBox="0 0 264.28292682926826 173.04" height="173.04" width="264.28292682926826"><g id="SvgjsG1262"><svg viewBox="0 0 264.28292682926826 173.04" height="173.04" width="264.28292682926826" id="SvgjsSvg1261"><g><svg viewBox="0 0 264.28292682926826 173.04" height="173.04" width="264.28292682926826"><g transform="matrix(1,0,0,1,0,0)"><svg width="264.28292682926826" viewBox="2.5 -41.55 66.75 44.05" height="173.04" data-palette-color="url(#2e917b2e-ee35-4c6f-8f4d-713f7b0d98ee)"><path d="M7.6 0L7.6 0Q6.55 0 5.78-0.75 5-1.5 5-2.6L5-2.6 5-36.45Q5-37.55 5.78-38.3 6.55-39.05 7.6-39.05L7.6-39.05Q8.7-39.05 9.45-38.3 10.2-37.55 10.2-36.45L10.2-36.45 10.2-21.45 26.75-38Q27.35-38.6 27.85-38.83 28.35-39.05 28.9-39.05L28.9-39.05Q30.15-39.05 30.7-38.3 31.25-37.55 31.1-36.52 30.95-35.5 30.15-34.65L30.15-34.65 17.4-21.85 30.4-4.15Q31-3.3 30.9-2.33 30.8-1.35 30.2-0.68 29.6 0 28.6 0L28.6 0Q27.2 0 26.45-1.1L26.45-1.1 13.8-18.25 10.2-14.65 10.2-2.6Q10.2-1.5 9.45-0.75 8.7 0 7.6 0ZM53.95 0L40.95 0Q39.85 0 39.1-0.75 38.35-1.5 38.35-2.6L38.35-2.6 38.35-36.45Q38.35-37.6 39.1-38.33 39.85-39.05 40.95-39.05L40.95-39.05 52.9-39.05Q56.3-39.05 58.87-37.73 61.45-36.4 62.92-34.05 64.4-31.7 64.4-28.65L64.4-28.65Q64.4-26.2 63.07-24.23 61.75-22.25 59.45-21.1L59.45-21.1Q62.75-20.3 64.75-17.95 66.75-15.6 66.75-11.8L66.75-11.8Q66.75-8.35 65.12-5.7 63.5-3.05 60.6-1.53 57.7 0 53.95 0L53.95 0ZM43.55-18.2L43.55-4.8 53.95-4.8Q56.25-4.8 58-5.6 59.75-6.4 60.75-7.95 61.75-9.5 61.75-11.8L61.75-11.8Q61.75-13.95 60.75-15.35 59.75-16.75 58-17.48 56.25-18.2 53.95-18.2L53.95-18.2 43.55-18.2ZM43.55-34.25L43.55-23 52.9-23Q55.75-23 57.57-24.4 59.4-25.8 59.4-28.65L59.4-28.65Q59.4-31.5 57.57-32.88 55.75-34.25 52.9-34.25L52.9-34.25 43.55-34.25Z" opacity="1" transform="matrix(1,0,0,1,0,0)" fill="black" class="wordmark-text-0" id="SvgjsPath1260" stroke-width="4" stroke="black" stroke-linejoin="round"></path></svg></g></svg></g></svg></g></svg></g></svg></g></svg></g></svg></g></mask><g transform="matrix(1,0,0,1,65.61853658536586,37.08)"><svg viewBox="0 0 264.28292682926826 173.04" height="173.04" width="264.28292682926826"><g><svg viewBox="0 0 264.28292682926826 173.04" height="173.04" width="264.28292682926826"><g><svg viewBox="0 0 264.28292682926826 173.04" height="173.04" width="264.28292682926826"><g><svg viewBox="0 0 264.28292682926826 173.04" height="173.04" width="264.28292682926826"><g id="SvgjsG1259"><svg viewBox="0 0 264.28292682926826 173.04" height="173.04" width="264.28292682926826" id="SvgjsSvg1258"><g><svg viewBox="0 0 264.28292682926826 173.04" height="173.04" width="264.28292682926826"><g transform="matrix(1,0,0,1,0,0)"><svg width="264.28292682926826" viewBox="2.5 -41.55 66.75 44.05" height="173.04" data-palette-color="url(#2e917b2e-ee35-4c6f-8f4d-713f7b0d98ee)"><path d="M7.6 0L7.6 0Q6.55 0 5.78-0.75 5-1.5 5-2.6L5-2.6 5-36.45Q5-37.55 5.78-38.3 6.55-39.05 7.6-39.05L7.6-39.05Q8.7-39.05 9.45-38.3 10.2-37.55 10.2-36.45L10.2-36.45 10.2-21.45 26.75-38Q27.35-38.6 27.85-38.83 28.35-39.05 28.9-39.05L28.9-39.05Q30.15-39.05 30.7-38.3 31.25-37.55 31.1-36.52 30.95-35.5 30.15-34.65L30.15-34.65 17.4-21.85 30.4-4.15Q31-3.3 30.9-2.33 30.8-1.35 30.2-0.68 29.6 0 28.6 0L28.6 0Q27.2 0 26.45-1.1L26.45-1.1 13.8-18.25 10.2-14.65 10.2-2.6Q10.2-1.5 9.45-0.75 8.7 0 7.6 0ZM53.95 0L40.95 0Q39.85 0 39.1-0.75 38.35-1.5 38.35-2.6L38.35-2.6 38.35-36.45Q38.35-37.6 39.1-38.33 39.85-39.05 40.95-39.05L40.95-39.05 52.9-39.05Q56.3-39.05 58.87-37.73 61.45-36.4 62.92-34.05 64.4-31.7 64.4-28.65L64.4-28.65Q64.4-26.2 63.07-24.23 61.75-22.25 59.45-21.1L59.45-21.1Q62.75-20.3 64.75-17.95 66.75-15.6 66.75-11.8L66.75-11.8Q66.75-8.35 65.12-5.7 63.5-3.05 60.6-1.53 57.7 0 53.95 0L53.95 0ZM43.55-18.2L43.55-4.8 53.95-4.8Q56.25-4.8 58-5.6 59.75-6.4 60.75-7.95 61.75-9.5 61.75-11.8L61.75-11.8Q61.75-13.95 60.75-15.35 59.75-16.75 58-17.48 56.25-18.2 53.95-18.2L53.95-18.2 43.55-18.2ZM43.55-34.25L43.55-23 52.9-23Q55.75-23 57.57-24.4 59.4-25.8 59.4-28.65L59.4-28.65Q59.4-31.5 57.57-32.88 55.75-34.25 52.9-34.25L52.9-34.25 43.55-34.25Z" opacity="1" transform="matrix(1,0,0,1,0,0)" fill="white" class="wordmark-text-0" id="SvgjsPath1257"></path></svg></g></svg></g></svg></g></svg></g></svg></g></svg></g></svg></g><g mask="url(#f47406e3-461e-4934-a4e9-a9731dfe83e6)"><g transform="matrix(3.262286793858599, 0, 0, 3.262286793858599, 75.73090018892522, 1)"><svg xmlns="http://www.w3.org/2000/svg" xmlns:xlink="http://www.w3.org/1999/xlink" version="1.1" x="0" y="0" viewBox="12.594 12.419 74.81200000000001 75.16199999999999" enable-background="new 0 0 100 100" xml:space="preserve" height="75.16199999999999" width="74.81200000000001" class="icon-none" data-fill-palette-color="accent" id="SvgjsSvg1256"><g fill="black"><path fill="black" d="M64.479 30.522H35.521c-2.757 0-5 2.243-5 5v28.956c0 2.757 2.243 5 5 5h28.957c2.757 0 5-2.243 5-5V35.522C69.479 32.766 67.235 30.522 64.479 30.522zM67.479 64.479c0 1.654-1.346 3-3 3H35.521c-1.654 0-3-1.346-3-3V35.522c0-1.654 1.346-3 3-3h28.957c1.654 0 3 1.346 3 3V64.479z"></path><path d="M64.479 32.522H35.521c-1.654 0-3 1.346-3 3v28.956c0 1.654 1.346 3 3 3h28.957c1.654 0 3-1.346 3-3V35.522C67.479 33.868 66.133 32.522 64.479 32.522z" fill="black"></path><path d="M76.742 27.258c0-2.209-1.791-4-4-4h-0.4v-3.681h-4.979v3.681h-3.146v-3.429h-4.979v3.429h-3.012v-3.442h-4.979v3.442h-2.781v-3.687h-4.979v3.687h-3.012v-3.7h-4.979v3.7h-3.021v-3.713h-4.979v3.713h-0.24c-2.209 0-4 1.791-4 4v0.825h-3.506v4.979h3.506v3.146h-3.256v4.979h3.256v3.012H19.99v4.979h3.268v2.781h-3.514v4.979h3.514v3.012h-3.525v4.979h3.525v3.021h-3.539v4.979h3.558c0.099 2.122 1.836 3.816 3.981 3.816h0.24v3.68h4.979v-3.68h3.146v3.429h4.979v-3.429h3.012v3.441h4.979v-3.441h2.781v3.687h4.979v-3.687h3.012v3.699h4.979v-3.699h3.021v3.713h4.979v-3.713h0.4c2.146 0 3.883-1.694 3.981-3.816h3.524v-4.979h-3.506v-3.146h3.256v-4.979h-3.256v-3.012h3.268v-4.979h-3.268v-2.781h3.514v-4.979h-3.514v-3.012h3.525v-4.979h-3.525v-3.021h3.539v-4.979h-3.539V27.258zM69.479 64.479c0 2.757-2.243 5-5 5H35.521c-2.757 0-5-2.243-5-5V35.522c0-2.757 2.243-5 5-5h28.957c2.757 0 5 2.243 5 5V64.479z" fill="black"></path><rect x="29.008" y="81.51" width="1.961" height="6.039" fill="black"></rect><rect x="37.133" y="81.259" width="1.961" height="6.039" fill="black"></rect><rect x="45.123" y="81.271" width="1.961" height="6.039" fill="black"></rect><rect x="52.883" y="81.517" width="1.961" height="6.039" fill="black"></rect><rect x="60.873" y="81.529" width="1.961" height="6.039" fill="black"></rect><rect x="68.873" y="81.542" width="1.961" height="6.039" fill="black"></rect><rect x="68.873" y="12.452" width="1.959" height="6.039" fill="black"></rect><rect x="60.748" y="12.703" width="1.959" height="6.039" fill="black"></rect><rect x="52.758" y="12.69" width="1.959" height="6.039" fill="black"></rect><rect x="44.998" y="12.445" width="1.959" height="6.039" fill="black"></rect><rect x="37.008" y="12.433" width="1.959" height="6.039" fill="black"></rect><rect x="29.008" y="12.419" width="1.959" height="6.039" fill="black"></rect><rect x="12.625" y="29.593" width="6.039" height="1.96" fill="black"></rect><rect x="12.877" y="37.718" width="6.039" height="1.96" fill="black"></rect><rect x="12.863" y="45.708" width="6.039" height="1.961" fill="black"></rect><rect x="12.619" y="53.468" width="6.039" height="1.961" fill="black"></rect><rect x="12.605" y="61.458" width="6.039" height="1.961" fill="black"></rect><rect x="12.594" y="69.458" width="6.039" height="1.961" fill="black"></rect><rect x="81.336" y="69.458" width="6.039" height="1.959" fill="black"></rect><rect x="81.084" y="61.333" width="6.039" height="1.959" fill="black"></rect><rect x="81.098" y="53.343" width="6.039" height="1.959" fill="black"></rect><rect x="81.342" y="45.583" width="6.039" height="1.959" fill="black"></rect><rect x="81.355" y="37.592" width="6.039" height="1.96" fill="black"></rect><rect x="81.367" y="29.592" width="6.039" height="1.96" fill="black"></rect></g></svg></g></g></svg></g><defs><mask></mask></defs></svg><rect width="395.52" height="247.2" fill="black" stroke="none" visibility="hidden"></rect></g></mask><linearGradient x1="0" x2="1" y1="0.548" y2="0.55" id="2e917b2e-ee35-4c6f-8f4d-713f7b0d98ee"><stop stop-color="#ff6cab" offset="0"></stop><stop stop-color="#7366ff" offset="1"></stop></linearGradient><rect width="395.52" height="247.2" fill="url(#2e917b2e-ee35-4c6f-8f4d-713f7b0d98ee)" mask="url(#12b62957-34bf-4767-b86d-7099cbd65a43)" data-fill-palette-color="primary"></rect></svg><rect width="395.52" height="247.2" fill="none" stroke="none" visibility="hidden"></rect></g></svg></g></svg>